<?xml version="1.0" encoding="utf-8"?><svg xmlns="http://www.w3.org/2000/svg" xmlns:xlink="http://www.w3.org/1999/xlink"><symbol viewBox="0 0 512 512" id="clock" xmlns="http://www.w3.org/2000/svg"><path d="M256 0C114.845 0 0 114.839 0 256s114.845 256 256 256c141.161 0 256-114.839 256-256S397.155 0 256 0zm0 474.628C135.45 474.628 37.372 376.55 37.372 256S135.45 37.372 256 37.372s218.628 98.077 218.628 218.622c0 120.556-98.078 218.634-218.628 218.634z"/><path d="M343.202 256h-80.973V143.883c0-10.321-8.365-18.686-18.686-18.686s-18.686 8.365-18.686 18.686v130.803c0 10.321 8.365 18.686 18.686 18.686h99.659c10.321 0 18.686-8.365 18.686-18.686S353.523 256 343.202 256z"/></symbol><symbol viewBox="0 0 206.676 206.676" id="girl" xmlns="http://www.w3.org/2000/svg"><path d="M103.485 43.514v160.004s-90.83 9.412-90.83-34.866c0 0 24.397 3.075 19.402-17.273-6.332-25.796-2.79-67.574 0-90.408 2.79-22.835 71.428-17.457 71.428-17.457z"/><path d="M103.191 43.514v160.004s90.83 9.412 90.83-34.866c0 0-24.397 3.075-19.402-17.273 6.332-25.796 2.79-67.574 0-90.408-2.791-22.835-71.428-17.457-71.428-17.457z"/><path d="M105.07 179.723v-23.311s37.002-1.121 37.002 21.274l-37.002 2.037zm-3.17 0v-23.311s-37.002-1.121-37.002 21.274l37.002 2.037z"/><path d="M88.788 156.41h29.395v32.923H88.788z"/><path d="M88.788 160.288s12.364 7.874 29.395 6.051v-9.929H88.788v3.878z"/><ellipse cx="46.4" cy="105.36" rx="14.343" ry="16.364"/><ellipse cx="160.568" cy="105.36" rx="14.343" ry="16.364"/><path d="M160.51 74.104c0-24.104-17.637-41.74-57.025-41.74-39.39 0-57.026 17.637-57.026 41.74 0 24.104-4.115 87.597 57.026 87.597 61.141 0 57.025-63.492 57.025-87.597z"/><ellipse cx="75.709" cy="101.442" rx="6.173" ry="6.761"/><circle cx="73.018" cy="98.457" r="1.846"/><path d="M65.834 86.865c2.919 1.117 7.606-3.799 18.336.478 1.955.78 3.123-6.668-8.378-6.668-9.958 0-11.722 5.514-9.958 6.19z"/><ellipse cx="132.023" cy="101.442" rx="6.173" ry="6.761"/><circle cx="129.332" cy="98.457" r="1.847"/><path d="M141.135 86.865c-2.919 1.117-7.605-3.799-18.335.478-1.955.78-3.123-6.668 8.378-6.668 9.957 0 11.721 5.514 9.957 6.19zM103.485 125.223c-6.1 0-9.774-4.557-9.774-2.352 0 2.204 1.764 6.394 9.774 6.394s9.773-4.189 9.773-6.394-3.674 2.352-9.773 2.352zm0 20.27c-2.11 0-3.381-1.576-3.381-.813s.61 2.212 3.381 2.212 3.38-1.449 3.38-2.212-1.271.813-3.38.813zM103.485 139.876c-9.669 0-15.493-3.938-15.493-2.94 0 .997 2.796 4.924 15.493 4.924 12.697 0 15.493-3.927 15.493-4.924 0-.997-5.825 2.94-15.493 2.94z"/><circle cx="67.771" cy="123.048" r="8.377"/><circle cx="140.229" cy="123.048" r="8.377"/><path d="M103.485 169.638v37.038H39.112c0-14.991 30.569-37.038 64.373-37.038z"/><path d="M103.485 169.638v37.038h64.372c0-14.991-30.568-37.038-64.372-37.038z"/><path d="M103.485 204.999v-35.361c-9.417 0-18.551 1.752-26.874 4.544l26.874 30.817zm0 0v-35.361c9.416 0 18.55 1.752 26.874 4.544l-26.874 30.817z"/><path d="M103.485 169.638c-6.849 0-13.545.939-19.9 2.507.905 5.501 4.62 16.787 19.9 16.787 15.279 0 18.994-11.286 19.899-16.787-6.354-1.569-13.05-2.507-19.899-2.507z"/><path d="M88.788 170.92s-.001 13.239 14.697 13.239c14.697 0 14.697-13.239 14.697-13.239s-15.249-5.552-29.394 0zM80.992 172.401c.44-2.861-17.119-.752-16.976 7.321.145 8.073 19.401 14.284 24.692 17.224 5.291 2.939 14.697 9.729 14.697 9.729s1.764-6.82-6.467-12.082c-8.229-5.26-16.534-18.37-15.946-22.192z"/><path d="M125.763 172.401c-.44-2.861 17.119-.752 16.976 7.321-.145 8.073-19.401 14.284-24.692 17.224-5.291 2.939-14.697 9.729-14.697 9.729s-1.764-6.82 6.467-12.082c8.229-5.26 16.534-18.37 15.946-22.192z"/><path d="M103.485 0C37.346 0 28.528 57.747 28.528 100.303c0 42.557 22.031 67.27 39.243 74.172 0 0-27.485-48.708-13.964-93.8 11.063-36.894 49.678-26 49.678-26s38.613-10.895 49.677 26c13.521 45.092-13.964 93.8-13.964 93.8 17.213-6.902 39.244-31.615 39.244-74.172C178.442 57.747 169.624 0 103.485 0z"/><path d="M125.85 64.864s-24.824 12.444-46.746 9.946c-21.921-2.499-30.341 20.228-29.003 35.269l-7.316-33.476 13.228-26.485 37.698-19.4 35.621 1.646 16.893 14.668 14.344 17.832 10.083 11.739-4.851 36.126-10.268 12.349c.001 0 9.291-46.35-29.683-60.214z"/></symbol><symbol viewBox="0 0 512 512" id="map" xmlns="http://www.w3.org/2000/svg"><path d="M256 0C153.755 0 70.573 83.182 70.573 185.426c0 126.888 165.939 313.167 173.004 321.035 6.636 7.391 18.222 7.378 24.846 0 7.065-7.868 173.004-194.147 173.004-321.035C441.425 83.182 358.244 0 256 0zm0 278.719c-51.442 0-93.292-41.851-93.292-93.293S204.559 92.134 256 92.134s93.291 41.851 93.291 93.293-41.85 93.292-93.291 93.292z"/></symbol></svg>